# xmcd
#
# Track frame offsets: 
#        150
#        32411
#        85689
#        137387
#        167148
#        219834
#        242095
#
# Disc length: 3968 seconds
#
# Revision: 1
# Processed by: cddbd v1.5.2PL0 Copyright (c) Steve Scherf et al.
# Submitted via: ExactAudioCopy v0.99pb5
#
DISCID=4b0f7e07
DTITLE=The Five Corners Quintet - The Helsinki Sessions
DYEAR=2011
DGENRE=Jazz
TTITLE0=Trading eights
TTITLE1=Hot Rod
TTITLE2=Unsquare Bossa
TTITLE3=Midnight In Trieste
TTITLE4=Skinny Dipping
TTITLE5=Three Corners
TTITLE6=Shake It
EXTD=YEAR: 2010
EXTT0=
EXTT1=
EXTT2=
EXTT3=
EXTT4=
EXTT5=
EXTT6=
PLAYORDER=
